<svg xmlns="http://www.w3.org/2000/svg" style="display:none">
  <!-- Feather-style icons as <symbol> so they can be reused via <use> -->

  <symbol id="icon-zoom-in" viewBox="0 0 24 24">
    <circle cx="11" cy="11" r="7" fill="none" stroke="currentColor" stroke-width="2"/>
    <line x1="11" y1="8" x2="11" y2="14" stroke="currentColor" stroke-width="2" stroke-linecap="round"/>
    <line x1="8" y1="11" x2="14" y2="11" stroke="currentColor" stroke-width="2" stroke-linecap="round"/>
    <line x1="20" y1="20" x2="16.65" y2="16.65" stroke="currentColor" stroke-width="2" stroke-linecap="round"/>
  </symbol>

  <symbol id="icon-zoom-out" viewBox="0 0 24 24">
    <circle cx="11" cy="11" r="7" fill="none" stroke="currentColor" stroke-width="2"/>
    <line x1="8" y1="11" x2="14" y2="11" stroke="currentColor" stroke-width="2" stroke-linecap="round"/>
    <line x1="20" y1="20" x2="16.65" y2="16.65" stroke="currentColor" stroke-width="2" stroke-linecap="round"/>
  </symbol>

  <symbol id="icon-reset" viewBox="0 0 24 24">
    <path d="M3 12a9 9 0 1 0 3-6.7" fill="none" stroke="currentColor" stroke-width="2" stroke-linecap="round" stroke-linejoin="round"/>
    <polyline points="3 4 3 10 9 10" fill="none" stroke="currentColor" stroke-width="2" stroke-linecap="round" stroke-linejoin="round"/>
  </symbol>

  <symbol id="icon-fullscreen" viewBox="0 0 24 24">
    <polyline points="15 3 21 3 21 9" fill="none" stroke="currentColor" stroke-width="2" stroke-linecap="round" stroke-linejoin="round"/>
    <polyline points="9 21 3 21 3 15" fill="none" stroke="currentColor" stroke-width="2" stroke-linecap="round" stroke-linejoin="round"/>
    <line x1="21" y1="3" x2="14" y2="10" stroke="currentColor" stroke-width="2" stroke-linecap="round"/>
    <line x1="3" y1="21" x2="10" y2="14" stroke="currentColor" stroke-width="2" stroke-linecap="round"/>
  </symbol>

  <symbol id="icon-copy" viewBox="0 0 24 24">
    <rect x="9" y="9" width="13" height="13" rx="2" ry="2" fill="none" stroke="currentColor" stroke-width="2"/>
    <path d="M5 15H4a2 2 0 0 1-2-2V4a2 2 0 0 1 2-2h9a2 2 0 0 1 2 2v1" fill="none" stroke="currentColor" stroke-width="2" stroke-linecap="round"/>
  </symbol>

  <symbol id="icon-download" viewBox="0 0 24 24">
    <path d="M21 15v4a2 2 0 0 1-2 2H5a2 2 0 0 1-2-2v-4" fill="none" stroke="currentColor" stroke-width="2" stroke-linecap="round" stroke-linejoin="round"/>
    <polyline points="7 10 12 15 17 10" fill="none" stroke="currentColor" stroke-width="2" stroke-linecap="round" stroke-linejoin="round"/>
    <line x1="12" y1="15" x2="12" y2="3" stroke="currentColor" stroke-width="2" stroke-linecap="round"/>
  </symbol>

  <symbol id="icon-image" viewBox="0 0 24 24">
    <rect x="3" y="3" width="18" height="18" rx="2" ry="2" fill="none" stroke="currentColor" stroke-width="2"/>
    <circle cx="8.5" cy="8.5" r="1.5" fill="none" stroke="currentColor" stroke-width="2"/>
    <polyline points="21 15 16 10 5 21" fill="none" stroke="currentColor" stroke-width="2" stroke-linecap="round" stroke-linejoin="round"/>
  </symbol>
</svg>


